<?xml version="1.0" encoding="UTF-8"?>
<!-- Generator: visioncortex VTracer 0.6.1 -->
<svg version="1.1" xmlns="http://www.w3.org/2000/svg" width="1280" height="1280">
<path d="M0 0 C0.928125 0.474375 1.85625 0.94875 2.8125 1.4375 C5.46378558 3.33127541 6.39325344 5.17212606 8 8 C9.46200723 9.69285048 10.96303847 11.33592088 12.5 12.9609375 C16.76781127 18.76249345 17.435484 24.02524395 17.36076355 31.00401306 C17.36332682 31.88795779 17.3658901 32.77190252 17.36853105 33.68263346 C17.37345612 36.63227894 17.35699705 39.58140785 17.34057617 42.53100586 C17.33972962 44.65023791 17.34020558 46.76947085 17.34190369 48.88870239 C17.34276398 54.63404968 17.32513251 60.37920884 17.30418181 66.12451243 C17.28542082 72.13162833 17.28366502 78.13874861 17.28010559 84.14588928 C17.27078345 95.51776483 17.2461673 106.88955379 17.21605712 118.26139122 C17.18251845 131.20929986 17.16602843 144.15721265 17.15097082 157.10515392 C17.11961796 183.73681727 17.06685409 210.36840378 17 237 C19.83275953 237.33896268 22.66604661 237.67129694 25.5 238 C26.29148437 238.09539062 27.08296875 238.19078125 27.8984375 238.2890625 C32.97418943 238.87152584 37.89280115 239.04479999 43 239 C45.5 239.5 45.5 239.5 47 240 C47 240.66 47 241.32 47 242 C51.95 242 56.9 242 62 242 C62 242.66 62 243.32 62 244 C66.95 244.33 71.9 244.66 77 245 C77 245.66 77 246.32 77 247 C77.886875 246.938125 78.77375 246.87625 79.6875 246.8125 C84.34576309 246.82176096 88.64779805 247.98046037 93.15234375 249.08203125 C97.52263299 250.12468909 101.91182248 251.03408189 106.3125 251.9375 C113.82158069 253.4921673 121.25438208 255.25446602 128.6796875 257.16796875 C131.44532378 257.86100466 134.19892433 258.47280135 137 259 C137 259.66 137 260.32 137 261 C137.6290625 261.03738281 138.258125 261.07476562 138.90625 261.11328125 C140.19015625 261.21189453 140.19015625 261.21189453 141.5 261.3125 C142.3353125 261.37050781 143.170625 261.42851562 144.03125 261.48828125 C147.02979794 262.00513622 149.66298958 262.92435618 152.48828125 264.03491211 C157.53371317 265.9735389 162.6640126 267.68361066 167.77392578 269.44384766 C169.76014952 270.12849854 171.74532824 270.81612179 173.73046875 271.50390625 C175.00254211 271.94288819 176.27467541 272.38169649 177.546875 272.8203125 C178.68995117 273.21492676 179.83302734 273.60954102 181.01074219 274.01611328 C183.3379681 274.78209829 185.62034203 275.43447425 188 276 C195.09656818 278.414647 202.05439367 281.18658984 209 284 C209.8353125 284.33 210.670625 284.66 211.53125 285 C215.58613821 286.60193115 219.59618195 288.2514902 223.5625 290.0625 C227.94103064 292.04065759 232.41677099 293.56977251 237 295 C237 295.66 237 296.32 237 297 C237.66257812 297.08507812 238.32515625 297.17015625 239.0078125 297.2578125 C242.95769754 298.237549 246.28010778 300.0002805 249.875 301.875 C253.76307585 303.88151174 257.61927761 305.83718303 261.64453125 307.55859375 C265.82301861 309.3535435 269.69285307 311.55277601 273.64453125 313.79296875 C275.85553094 315.15201565 275.85553094 315.15201565 278 315 C278 315.66 278 316.32 278 317 C278.9075 317.268125 279.815 317.53625 280.75 317.8125 C283.80235404 318.92778321 285.4572437 320.07366947 288 322 C290.32671865 323.01529541 292.6603447 324.01488198 295 325 C296.67937304 325.9785111 298.34545246 326.98007343 300 328 C306.18794506 331.76978906 312.42189498 335.3505539 318.84765625 338.703125 C321 340 321 340 322 342 C322.804375 342.391875 323.60875 342.78375 324.4375 343.1875 C328.45079448 345.22935158 331.94866122 347.68834243 335.609375 350.296875 C339.33601276 352.95179994 343.15680382 355.4554358 347 357.9375 C350 360 350 360 353.0625 362.5625 C355.64917894 364.70889316 358.12546287 366.288966 361 368 C363.70159612 369.95446132 366.3497411 371.97674072 369 374 C370.99149806 375.50044374 372.98837088 376.99148257 375 378.46484375 C378.61114267 381.12382966 381.82681519 383.82681519 385 387 C385.75152344 387.42023438 386.50304687 387.84046875 387.27734375 388.2734375 C390.48137111 390.30525973 392.76812262 392.68496615 395.375 395.4375 C399.27163528 399.47129896 402.89486464 402.6176035 408 405 C408 405.66 408 406.32 408 407 C408.5878125 407.27070313 409.175625 407.54140625 409.78125 407.8203125 C415.22694304 410.7157338 422.04077838 416.12233515 424 422 C424.99 422 425.98 422 427 422 C428.04443685 423.63918561 429.03669648 425.3118578 430 427 C431.45200377 428.60719983 432.95432804 430.17016535 434.5 431.6875 C435.2734375 432.45449219 436.046875 433.22148438 436.84375 434.01171875 C439.07302147 436.0673332 441.28534327 437.64267164 444 439 C444 439.99 444 440.98 444 442 C444.99 442.33 445.98 442.66 447 443 C448.34838867 444.3762207 448.34838867 444.3762207 449.73046875 446.11328125 C453.56675014 450.75832428 457.87205759 454.8614922 462.22851562 459.01367188 C462.82986328 459.60083984 463.43121094 460.18800781 464.05078125 460.79296875 C464.59387939 461.3139917 465.13697754 461.83501465 465.6965332 462.37182617 C467.17978649 464.22457316 467.59354659 465.68293263 468 468 C468.66 467.67 469.32 467.34 470 467 C470.061875 467.556875 470.12375 468.11375 470.1875 468.6875 C471.66099631 472.88129719 475.13102383 475.35861283 478.625 477.9375 C481 480 481 480 482.375 482.8125 C483.90206066 485.80788821 485.11320845 487.23804064 487.5 489.5 C490.58094726 492.43301033 492.15374964 495.14695578 494 499 C495.349349 500.73610508 496.78928986 502.36451359 498.25 504.0078125 C500.29202821 506.33244282 502.24417557 508.71727819 504.1875 511.125 C504.84105469 511.93195312 505.49460937 512.73890625 506.16796875 513.5703125 C507.97363649 515.96503603 509.49443057 518.40872417 511 521 C512.79136327 523.74302501 514.5839952 526.45087367 516.5625 529.0625 C518.21379947 531.28816451 519.58261324 533.61879024 521 536 C523.71679869 540.22825777 523.71679869 540.22825777 527 544 C527.4640625 545.2065625 527.4640625 545.2065625 527.9375 546.4375 C528.79324976 548.98750529 528.79324976 548.98750529 530.44140625 550.37890625 C532.7958414 552.82775484 533.69016854 555.72542135 534.9375 558.84375 C535.87290624 561.05905026 535.87290624 561.05905026 537.625 562.53125 C539 564 539 564 539 568 C539.99 568.33 540.98 568.66 542 569 C542.66666667 571.33333333 543.33333333 573.66666667 544 576 C544.99 576.33 545.98 576.66 547 577 C548.0625 578.890625 548.0625 578.890625 549 581.25 C550.11068817 583.93522696 551.18705521 586.31175868 552.6875 588.8125 C553.95459835 590.92433059 554.41059611 592.64238444 555 595 C555.99 595.495 555.99 595.495 557 596 C557.67441131 597.6635479 558.3400321 599.33066942 559 601 C559.98028616 602.34789347 560.97971135 603.68212715 562 605 C563.86177761 608.13562545 564 609.12808566 564 613 C564.66 613 565.32 613 566 613 C567.70285335 616.17349943 569.02398795 619.08545708 570 622.5625 C570.95856354 625.85756216 572.18292454 628.12296385 574 631 C574.66666667 632.66666667 575.33333333 634.33333333 576 636 C576.53625 636.845625 577.0725 637.69125 577.625 638.5625 C579 641 579 641 579 645 C579.66 645 580.32 645 581 645 C582.35439668 647.70879335 582.06501451 650.00933268 582 653 C582.66 653 583.32 653 584 653 C584 654.65 584 656.3 584 658 C584.99 658.33 585.98 658.66 587 659 C587.94921875 661.21484375 587.94921875 661.21484375 588.6875 663.9375 C588.93886719 664.83339844 589.19023438 665.72929688 589.44921875 666.65234375 C590 669 590 669 590 671 C590.66 671 591.32 671 592 671 C592.19335938 671.77085937 592.38671875 672.54171875 592.5859375 673.3359375 C592.84632812 674.33882812 593.10671875 675.34171875 593.375 676.375 C593.63023438 677.37273438 593.88546875 678.37046875 594.1484375 679.3984375 C594.82404319 682.12541015 594.82404319 682.12541015 597 684 C598.29706991 687.89120974 599 690.87806318 599 695 C599.66 695 600.32 695 601 695 C602.46593823 699.30985841 603.9199339 703.60881218 605.125 708 C605.69771185 710.85798939 605.69771185 710.85798939 607 712 C607.04080783 713.99958364 607.04254356 716.00045254 607 718 C607.66 718 608.32 718 609 718 C609 720.64 609 723.28 609 726 C609.99 726.33 610.98 726.66 612 727 C613.65049717 731.43028188 614.22973141 735.29050618 614 740 C614.66 740 615.32 740 616 740 C616.10957031 740.6290625 616.21914062 741.258125 616.33203125 741.90625 C617.24216943 746.81951626 618.40067755 751.28500668 620.2734375 755.91015625 C621.41621331 759.19717269 621.97471183 762.57400217 622.5703125 765.99609375 C622.8078864 767.98893291 622.8078864 767.98893291 624 769 C624.56881913 771.31082773 625.02763361 773.63644097 625.5 775.96875 C625.8098065 777.98233957 625.8098065 777.98233957 627 779 C627.07179964 780.51928038 627.08392007 782.04167482 627.0625 783.5625 C627.05347656 784.38878906 627.04445313 785.21507812 627.03515625 786.06640625 C627.02355469 786.70449219 627.01195312 787.34257813 627 788 C627.66 788 628.32 788 629 788 C629.29166667 789.45833333 629.58333333 790.91666667 629.875 792.375 C630.05675781 793.27863281 630.23851562 794.18226563 630.42578125 795.11328125 C630.80620743 797.02576389 631.17871118 798.93984083 631.54296875 800.85546875 C631.71441406 801.74878906 631.88585938 802.64210938 632.0625 803.5625 C632.29646484 804.80193359 632.29646484 804.80193359 632.53515625 806.06640625 C632.82072541 807.99480419 632.82072541 807.99480419 634 809 C634.28393978 811.51489516 634.4481124 814.02989582 634.62109375 816.5546875 C634.8632494 819.25068778 634.8632494 819.25068778 637 822 C637.1953125 824.69921875 637.1953125 824.69921875 637.125 827.6875 C637.10695313 828.68136719 637.08890625 829.67523437 637.0703125 830.69921875 C637.03550781 831.83810547 637.03550781 831.83810547 637 833 C637.66 833 638.32 833 639 833 C639.04898437 833.74765625 639.09796875 834.4953125 639.1484375 835.265625 C639.22320313 836.25046875 639.29796875 837.2353125 639.375 838.25 C639.47941406 839.71179688 639.47941406 839.71179688 639.5859375 841.203125 C639.84029778 843.94495469 639.84029778 843.94495469 641.00390625 845.97265625 C642.35091234 848.71420982 642.38868271 851.15124472 642.5625 854.1875 C642.46789478 857.91007457 642.46789478 857.91007457 644 861 C644.28609016 864.29684855 644.44890147 867.59381125 644.62109375 870.8984375 C644.78399964 874.16318346 644.78399964 874.16318346 647 877 C647.27474776 879.56620071 647.46338713 882.05290005 647.5625 884.625 C647.36127315 889.17978735 647.36127315 889.17978735 649 893 C649.23755563 896.33709105 649.39574879 899.66688742 649.51757812 903.00976562 C649.66736099 907.12563631 649.66736099 907.12563631 651.00219727 910.96337891 C652.13624617 913.27809287 652.28034704 914.87713908 652.34375 917.44140625 C652.37339844 918.27220703 652.40304687 919.10300781 652.43359375 919.95898438 C652.47796415 921.69856517 652.52223454 923.43814852 652.56640625 925.17773438 C652.59605469 926.00724609 652.62570312 926.83675781 652.65625 927.69140625 C652.67494141 928.44623291 652.69363281 929.20105957 652.71289062 929.97875977 C652.89577128 932.31184373 652.89577128 932.31184373 655 935 C655.1953125 937.18896484 655.1953125 937.18896484 655.125 939.7109375 C655.10953125 940.62617187 655.0940625 941.54140625 655.078125 942.484375 C655.02625266 944.40365155 654.97417105 946.32292245 654.921875 948.2421875 C654.90640625 949.16 654.8909375 950.0778125 654.875 951.0234375 C654.84019531 952.27519775 654.84019531 952.27519775 654.8046875 953.55224609 C654.87879146 956.05247966 654.87879146 956.05247966 655.98632812 958.39941406 C657.22519978 961.57775242 657.28809671 964.17909253 657.34375 967.5859375 C657.37339844 968.84664062 657.40304687 970.10734375 657.43359375 971.40625 C657.46646484 973.37078125 657.46646484 973.37078125 657.5 975.375 C657.54361598 977.96630219 657.59544185 980.55748174 657.65625 983.1484375 C657.67494141 984.29489746 657.69363281 985.44135742 657.71289062 986.62255859 C657.87521863 990.00828154 657.87521863 990.00828154 658.99780273 993.13677979 C660.15674569 997.6042155 660.30990807 1001.59955393 660.32226562 1006.18896484 C660.33219543 1007.08261246 660.34212524 1007.97626007 660.35235596 1008.89698792 C660.3814176 1011.83500311 660.39517055 1014.77280256 660.40625 1017.7109375 C660.41190475 1018.71931293 660.41755951 1019.72768837 660.42338562 1020.76662064 C660.45329366 1026.10028369 660.47180161 1031.43383956 660.48046875 1036.76757812 C660.49144271 1042.26095902 660.53952735 1047.75334961 660.59641266 1053.24641991 C660.63375506 1057.48622465 660.64408118 1061.72579256 660.6471405 1065.96574783 C660.65317199 1067.99027561 660.66915626 1070.01480028 660.69551086 1072.0391655 C660.92669898 1091.15778294 660.92669898 1091.15778294 655.57553101 1097.43682861 C654.79564316 1098.21059845 654.79564316 1098.21059845 654 1099 C653.02253492 1100.13203379 652.04583528 1101.26472952 651.0703125 1102.3984375 C650.09632178 1103.39826352 649.11461439 1104.39063555 648.125 1105.375 C647.64675781 1105.88160156 647.16851563 1106.38820313 646.67578125 1106.91015625 C640.53427045 1113.08407608 634.10283266 1114.38529511 625.56054688 1114.45898438 C624.07651367 1114.44834961 624.07651367 1114.44834961 622.5625 1114.4375 C621.08426758 1114.4674707 621.08426758 1114.4674707 619.57617188 1114.49804688 C610.01180913 1114.49170866 603.3250779 1111.87383091 596.43286133 1105.23120117 C595.85689209 1104.63927979 595.28092285 1104.0473584 594.6875 1103.4375 C594.07865967 1102.81399658 593.46981934 1102.19049316 592.8425293 1101.5480957 C588.05792646 1096.44334329 585.33846532 1091.94051884 584 1085 C583.87125488 1084.33500488 583.74250977 1083.67000977 583.60986328 1082.98486328 C582.91582219 1079.33649093 582.28373233 1075.6848636 581.7109375 1072.015625 C581.09008287 1068.24449146 580.09142444 1064.66576252 579 1061 C578.09614223 1057.61141123 577.23439318 1054.2125992 576.375 1050.8125 C576.03082031 1049.47928711 576.03082031 1049.47928711 575.6796875 1048.11914062 C575.463125 1047.26126953 575.2465625 1046.40339844 575.0234375 1045.51953125 C574.82669434 1044.74714111 574.62995117 1043.97475098 574.42724609 1043.17895508 C574 1041 574 1041 574 1037 C573.34 1036.67 572.68 1036.34 572 1036 C571.46606445 1034.24121094 571.46606445 1034.24121094 571.05078125 1031.984375 C570.09344725 1027.26761742 568.74051501 1022.80086983 567.1875 1018.25 C566.92541748 1017.47213135 566.66333496 1016.6942627 566.39331055 1015.89282227 C564.44106322 1010.15414785 562.31586572 1004.49446426 560.1015625 998.8515625 C556 988.23404255 556 988.23404255 556 985 C555.34 985 554.68 985 554 985 C553.608125 983.741875 553.21625 982.48375 552.8125 981.1875 C551.23432657 976.3998681 549.17846674 971.91824086 546.98828125 967.3828125 C546 965 546 965 546 962 C545.34 961.67 544.68 961.34 544 961 C541 955.69230769 541 955.69230769 541 952 C540.34 951.67 539.68 951.34 539 951 C536 945.69230769 536 945.69230769 536 942 C535.34 941.67 534.68 941.34 534 941 C531.60284556 937.58866484 531 936.29387011 531 932 C530.34 931.67 529.68 931.34 529 931 C527.97784597 929.24317275 526.95804552 927.48399924 526 925.69140625 C524.99165437 923.8257777 524.99165437 923.8257777 523 922 C522.28072705 919.68234271 521.6090107 917.34904126 521 915 C520.34 915 519.68 915 519 915 C518.68546875 914.34773437 518.3709375 913.69546875 518.046875 913.0234375 C513.90354419 904.42310993 513.90354419 904.42310993 508 897 C507.7525 895.9790625 507.7525 895.9790625 507.5 894.9375 C507.2525 893.9784375 507.2525 893.9784375 507 893 C506.34 892.67 505.68 892.34 505 892 C505 891.01 505 890.02 505 889 C504.01 888.67 503.02 888.34 502 888 C501.30341637 886.34561387 500.63903117 884.67745682 500 883 C499.01904252 881.98131338 498.02297922 880.97648017 497 880 C497 879.34 497 878.68 497 878 C496.34 877.67 495.68 877.34 495 877 C494.04111808 875.65409947 493.13137713 874.27288309 492.25 872.875 C490.28550693 869.84680581 488.28256574 867.0636521 485.875 864.375 C483.88198458 862.14447497 482.3825914 860.02591905 481 857.375 C478.79176914 853.64861043 476.30764487 851.74464149 473 849 C472.35224609 847.62521484 472.35224609 847.62521484 471.69140625 846.22265625 C469.664689 842.361128 467.165495 839.9361113 464 837 C459.93991369 833.23412284 457.39358431 830.08547884 455 825 C453.54255999 823.38253815 453.54255999 823.38253815 451.9375 822.25 C448.9720475 819.97858958 446.89916454 817.87912369 444.50390625 815.0078125 C440.25597987 810.02890758 435.58445307 805.47776113 430.9375 800.875 C430.05255859 799.99457031 429.16761719 799.11414063 428.25585938 798.20703125 C425.83902167 795.80288512 423.41982423 793.40113938 421 791 C418.49842489 788.51507739 416.02255882 786.02433978 413.625 783.4375 C411.18364334 781.17052596 408.88118757 779.84770173 405.9609375 778.3046875 C402.5732619 776.05073601 399.95454605 773.00475943 397.2109375 770.0234375 C394.86225 767.87393198 392.9214915 767.16672983 390 766 C388.15625 764.125 388.15625 764.125 386.5 762 C383.79110894 758.74232498 382.02010959 757.40703836 378 756 C374.80204124 753.59166069 371.89860011 750.82328887 368.94921875 748.12109375 C365.40016077 744.91958947 362.57903473 742.56995476 358 741 C357 740 356 739 355 738 C354.154375 737.67 353.30875 737.34 352.4375 737 C350 736 350 736 348 733 C346.33927151 732.31867549 344.672233 731.65257873 343 731 C342 730 341 729 340 728 C337.40084462 726.80972016 337.40084462 726.80972016 335 726 C335 725.34 335 724.68 335 724 C333.8553125 723.8453125 333.8553125 723.8453125 332.6875 723.6875 C329.73421485 722.93200845 329.04132166 722.13007477 327 720 C324.89667109 719.28552357 324.89667109 719.28552357 323 719 C323 718.34 323 717.68 323 717 C321.35 716.67 319.7 716.34 318 716 C318 715.34 318 714.68 318 714 C316.8553125 713.8453125 316.8553125 713.8453125 315.6875 713.6875 C313 713 313 713 311.63671875 711.58203125 C309.61614743 709.62897305 307.75674611 708.9599074 305.125 708 C301.485691 706.61611182 298.30300131 705.07617225 295 703 C293.34630643 702.30177383 291.68272986 701.62501395 290 701 C290 700.34 290 699.68 290 699 C288.9171875 698.814375 288.9171875 698.814375 287.8125 698.625 C285.04278106 698.0095069 282.6029646 697.11555626 280 696 C280 695.34 280 694.68 280 694 C279.360625 693.896875 278.72125 693.79375 278.0625 693.6875 C271.63984521 692.24567954 265.8021263 690.0169962 259.9765625 686.9765625 C256.75070869 685.38276121 253.38076068 684.2182272 250 683 C248.33094605 682.33933281 246.6630584 681.67561748 245 681 C245 680.34 245 679.68 245 679 C243.9790625 678.814375 243.9790625 678.814375 242.9375 678.625 C237.42719643 677.45259499 232.21389459 675.73611331 226.96875 673.71875 C225.17380095 673.06345114 223.33730563 672.52494447 221.5 672 C218.2314851 671.0661386 215.13633131 669.9370505 211.96875 668.71875 C210.17380095 668.06345114 208.33730563 667.52494447 206.5 667 C203.91364295 666.26104084 201.50023137 665.46162745 199 664.5 C193.06741832 662.23400431 187.0312207 660.73860628 180.8203125 659.46484375 C179 659 179 659 178 658 C176.50879612 657.64791019 175.00617308 657.34374528 173.5 657.0625 C169.97242541 656.38236332 166.44982907 655.69296083 162.9375 654.9375 C161.83728516 654.70353516 161.83728516 654.70353516 160.71484375 654.46484375 C159 654 159 654 158 653 C155.74584622 652.71710819 153.49159344 652.5522881 151.2265625 652.37890625 C149 652 149 652 146 650 C143.78757151 649.58217613 143.78757151 649.58217613 141.4375 649.4375 C137.19178082 649.09589041 137.19178082 649.09589041 135 648 C132.50542871 647.72620559 130.01107933 647.55450855 127.5078125 647.37890625 C125 647 125 647 123.06640625 646 C120.30375966 644.66306705 117.86442572 644.61221438 114.8125 644.4375 C109.09897172 644.09897172 109.09897172 644.09897172 108 643 C104.50779508 642.71203022 101.01532551 642.55096266 97.515625 642.37890625 C94 642 94 642 91.5546875 641 C88.05063145 639.62838173 84.5901986 639.57622782 80.875 639.4375 C73.35758514 639.11919505 73.35758514 639.11919505 70 638 C68.34773298 637.87511833 66.69152445 637.79891873 65.03515625 637.75390625 C64.07029297 637.72103516 63.10542969 637.68816406 62.11132812 637.65429688 C60.08279273 637.5932199 58.05414023 637.53591302 56.02539062 637.48242188 C54.57616211 637.43118164 54.57616211 637.43118164 53.09765625 637.37890625 C52.21601807 637.3538501 51.33437988 637.32879395 50.42602539 637.30297852 C48 637 48 637 46.2419281 635.99327087 C43.28688297 634.68405839 40.92911926 634.77425359 37.703125 634.8046875 C35.89521484 634.81435547 35.89521484 634.81435547 34.05078125 634.82421875 C32.79652344 634.84097656 31.54226563 634.85773437 30.25 634.875 C28.98027344 634.88402344 27.71054687 634.89304687 26.40234375 634.90234375 C23.26803907 634.92590995 20.13411459 634.95881168 17 635 C17.00092179 636.09590139 17.00184359 637.19180279 17.00279331 638.32091331 C17.02496447 664.95115014 17.04141225 691.58138577 17.05181217 718.21162987 C17.0569748 731.08965762 17.06401687 743.96767928 17.07543945 756.84570312 C17.0853873 768.06640331 17.09185367 779.28709909 17.09408849 790.50780356 C17.09539543 796.45247736 17.09848021 802.39713855 17.10573006 808.34180832 C17.11249185 813.93130266 17.11461663 819.52077913 17.11310768 825.11027718 C17.11338394 827.1670612 17.11538812 829.22384579 17.11920547 831.2806263 C17.12414518 834.07816894 17.12299723 836.87564319 17.12025452 839.67318726 C17.12316736 840.49613356 17.1260802 841.31907986 17.12908131 842.16696393 C17.11412121 847.77175758 17.11412121 847.77175758 16 850 C15.34 850 14.68 850 14 850 C13.814375 851.11375 13.814375 851.11375 13.625 852.25 C13.04513299 854.80141485 12.26291261 856.7267573 11 859 C10.67 858.34 10.34 857.68 10 857 C9.01 857 8.02 857 7 857 C6.67 858.32 6.34 859.64 6 861 C6.66 861.33 7.32 861.66 8 862 C3.08532423 868.41638225 3.08532423 868.41638225 -1 869 C-1.33 869.66 -1.66 870.32 -2 871 C-10.51945293 875.29916838 -22.71925147 875.48687108 -31.87109375 873.3203125 C-34.0625 872.5 -34.0625 872.5 -37 871 C-37 870.34 -37 869.68 -37 869 C-37.71929688 868.90460937 -38.43859375 868.80921875 -39.1796875 868.7109375 C-42.43476404 867.89040574 -44.41460977 866.58941126 -47.125 864.625 C-47.97320313 864.01914062 -48.82140625 863.41328125 -49.6953125 862.7890625 C-52 861 -52 861 -53.64453125 859.3359375 C-55.03102772 857.79350003 -55.03102772 857.79350003 -57.5625 857 C-60 856 -60 856 -62 853 C-62.9075 852.54625 -63.815 852.0925 -64.75 851.625 C-69.46802473 849.26598763 -73.04991413 845.83132513 -77 842.375 C-79.88616506 839.92375494 -79.88616506 839.92375494 -83.125 838.4375 C-86.08410896 836.95794552 -87.68599046 835.31400954 -90 833 C-91.66392045 832.32650839 -93.33032028 831.6590841 -95 831 C-95.66 830.01 -96.32 829.02 -97 828 C-97.9075 827.54625 -98.815 827.0925 -99.75 826.625 C-103.33995445 824.83002277 -105.95436669 822.60147845 -109 820 C-110.11547786 819.25634809 -111.24024166 818.52638553 -112.375 817.8125 C-113.674375 816.9153125 -113.674375 816.9153125 -115 816 C-115 815.34 -115 814.68 -115 814 C-115.721875 813.938125 -116.44375 813.87625 -117.1875 813.8125 C-120.85341706 812.75345729 -122.36194411 810.70400728 -125 808 C-126.65583225 807.30686092 -128.32110979 806.63525576 -130 806 C-130.66 805.01 -131.32 804.02 -132 803 C-132.9075 802.54625 -133.815 802.0925 -134.75 801.625 C-139.46802473 799.26598763 -143.04991413 795.83132513 -147 792.375 C-149.88616506 789.92375494 -149.88616506 789.92375494 -153.125 788.4375 C-156.08410896 786.95794552 -157.68599046 785.31400954 -160 783 C-161.66392045 782.32650839 -163.33032028 781.6590841 -165 781 C-165.66 780.01 -166.32 779.02 -167 778 C-167.9075 777.54625 -168.815 777.0925 -169.75 776.625 C-172.68717166 775.15641417 -174.89643331 773.53764587 -177.36328125 771.39453125 C-181.28085771 768.0566439 -185.39958382 764.96024971 -189.8125 762.3125 C-192 761 -192 761 -193.5 759.4375 C-195.00842301 757.80867724 -195.00842301 757.80867724 -197.5625 757 C-200 756 -200 756 -202 753 C-202.9075 752.54625 -203.815 752.0925 -204.75 751.625 C-209.46802473 749.26598763 -213.04991413 745.83132513 -217 742.375 C-219.88616506 739.92375494 -219.88616506 739.92375494 -223.125 738.4375 C-226.08410896 736.95794552 -227.68599046 735.31400954 -230 733 C-231.66392045 732.32650839 -233.33032028 731.6590841 -235 731 C-235.66 730.01 -236.32 729.02 -237 728 C-237.9075 727.54625 -238.815 727.0925 -239.75 726.625 C-242.68717166 725.15641417 -244.89643331 723.53764587 -247.36328125 721.39453125 C-251.28085771 718.0566439 -255.39958382 714.96024971 -259.8125 712.3125 C-262 711 -262 711 -263.5 709.4375 C-265.00842301 707.80867724 -265.00842301 707.80867724 -267.5625 707 C-270 706 -270 706 -272 703 C-272.9075 702.54625 -273.815 702.0925 -274.75 701.625 C-278.33995445 699.83002277 -280.95436669 697.60147845 -284 695 C-285.11547786 694.25634809 -286.24024166 693.52638553 -287.375 692.8125 C-288.674375 691.9153125 -288.674375 691.9153125 -290 691 C-290 690.34 -290 689.68 -290 689 C-290.721875 688.938125 -291.44375 688.87625 -292.1875 688.8125 C-295.85341706 687.75345729 -297.36194411 685.70400728 -300 683 C-301.65583225 682.30686092 -303.32110979 681.63525576 -305 681 C-305.66 680.01 -306.32 679.02 -307 678 C-307.9075 677.54625 -308.815 677.0925 -309.75 676.625 C-314.46802473 674.26598763 -318.04991413 670.83132513 -322 667.375 C-324.88616506 664.92375494 -324.88616506 664.92375494 -328.125 663.4375 C-331.08410896 661.95794552 -332.68599046 660.31400954 -335 658 C-336.66392045 657.32650839 -338.33032028 656.6590841 -340 656 C-340.66 655.01 -341.32 654.02 -342 653 C-342.9075 652.54625 -343.815 652.0925 -344.75 651.625 C-349.46802473 649.26598763 -353.04991413 645.83132513 -357 642.375 C-359.88616506 639.92375494 -359.88616506 639.92375494 -363.125 638.4375 C-366.08410896 636.95794552 -367.68599046 635.31400954 -370 633 C-371.66392045 632.32650839 -373.33032028 631.6590841 -375 631 C-375.99 629.515 -375.99 629.515 -377 628 C-378.36125 627.319375 -378.36125 627.319375 -379.75 626.625 C-383.33995445 624.83002277 -385.95436669 622.60147845 -389 620 C-390.11547786 619.25634809 -391.24024166 618.52638553 -392.375 617.8125 C-393.24125 617.214375 -394.1075 616.61625 -395 616 C-395 615.34 -395 614.68 -395 614 C-395.721875 613.938125 -396.44375 613.87625 -397.1875 613.8125 C-400.85341706 612.75345729 -402.36194411 610.70400728 -405 608 C-406.65583225 607.30686092 -408.32110979 606.63525576 -410 606 C-410.99 604.515 -410.99 604.515 -412 603 C-413.36125 602.319375 -413.36125 602.319375 -414.75 601.625 C-419.46802473 599.26598763 -423.04991413 595.83132513 -427 592.375 C-429.88616506 589.92375494 -429.88616506 589.92375494 -433.125 588.4375 C-436.08410896 586.95794552 -437.68599046 585.31400954 -440 583 C-441.66392045 582.32650839 -443.33032028 581.6590841 -445 581 C-445.99 579.515 -445.99 579.515 -447 578 C-448.36125 577.319375 -448.36125 577.319375 -449.75 576.625 C-454.46802473 574.26598763 -458.04991413 570.83132513 -462 567.375 C-464.88616506 564.92375494 -464.88616506 564.92375494 -468.125 563.4375 C-471.08410896 561.95794552 -472.68599046 560.31400954 -475 558 C-476.66392045 557.32650839 -478.33032028 556.6590841 -480 556 C-480.99 554.515 -480.99 554.515 -482 553 C-483.36125 552.319375 -483.36125 552.319375 -484.75 551.625 C-489.46802473 549.26598763 -493.04991413 545.83132513 -497 542.375 C-499.88616506 539.92375494 -499.88616506 539.92375494 -503.125 538.4375 C-506.08410896 536.95794552 -507.68599046 535.31400954 -510 533 C-511.66392045 532.32650839 -513.33032028 531.6590841 -515 531 C-515.99 529.515 -515.99 529.515 -517 528 C-518.36125 527.319375 -518.36125 527.319375 -519.75 526.625 C-523.33995445 524.83002277 -525.95436669 522.60147845 -529 520 C-530.11547786 519.25634809 -531.24024166 518.52638553 -532.375 517.8125 C-533.674375 516.9153125 -533.674375 516.9153125 -535 516 C-535 515.34 -535 514.68 -535 514 C-535.721875 513.938125 -536.44375 513.87625 -537.1875 513.8125 C-540.85341706 512.75345729 -542.36194411 510.70400728 -545 508 C-546.65583225 507.30686092 -548.32110979 506.63525576 -550 506 C-550.99 504.515 -550.99 504.515 -552 503 C-553.36125 502.319375 -553.36125 502.319375 -554.75 501.625 C-559.46802473 499.26598763 -563.04991413 495.83132513 -567 492.375 C-569.88616506 489.92375494 -569.88616506 489.92375494 -573.125 488.4375 C-576.08410896 486.95794552 -577.68599046 485.31400954 -580 483 C-581.66392045 482.32650839 -583.33032028 481.6590841 -585 481 C-585.66 480.01 -586.32 479.02 -587 478 C-587.9075 477.54625 -588.815 477.0925 -589.75 476.625 C-593.33522082 474.83238959 -595.93192675 472.56716334 -599 470 C-600.21679126 469.31100495 -601.44633363 468.64405061 -602.6875 468 C-606.26426313 465.8404449 -606.9862462 464.52406916 -609 461 C-610.16437845 460.01370296 -611.3546477 459.05755126 -612.5625 458.125 C-616.30811398 455.09057855 -617.15605869 452.68856285 -618 448 C-618.66 448 -619.32 448 -620 448 C-620 439.42 -620 430.84 -620 422 C-619.34 422 -618.68 422 -618 422 C-618.061875 421.0925 -618.12375 420.185 -618.1875 419.25 C-617.97723851 415.60546754 -617.32545678 414.68321936 -615 412 C-614.690625 411.34 -614.38125 410.68 -614.0625 410 C-612.73570264 407.50249908 -611.1209809 405.85585829 -609 404 C-608.34 404 -607.68 404 -607 404 C-607 403.34 -607 402.68 -607 402 C-605.8553125 401.5978125 -605.8553125 401.5978125 -604.6875 401.1875 C-601.99574277 400.2011342 -601.99574277 400.2011342 -600.4375 398.375 C-599 397 -599 397 -595 397 C-594.814375 396.4225 -594.62875 395.845 -594.4375 395.25 C-592.88667917 392.82262826 -591.9116139 392.22359487 -589.4375 390.875 C-585.96468026 389.40524759 -585.96468026 389.40524759 -585 387 C-584.34 387 -583.68 387 -583 387 C-583 386.34 -583 385.68 -583 385 C-582.13181641 384.85691406 -582.13181641 384.85691406 -581.24609375 384.7109375 C-578.51381657 383.84611238 -577.14476462 382.57944243 -575.0625 380.625 C-572.18404278 378.00383504 -569.41059003 375.90591796 -566 374 C-565.34 373.34 -564.68 372.68 -564 372 C-562.68 372 -561.36 372 -560 372 C-559.7215625 371.13375 -559.7215625 371.13375 -559.4375 370.25 C-557.88667917 367.82262826 -556.9116139 367.22359487 -554.4375 365.875 C-550.96468026 364.40524759 -550.96468026 364.40524759 -550 362 C-549.34 362 -548.68 362 -548 362 C-548 361.34 -548 360.68 -548 360 C-547.41089844 359.90589844 -546.82179688 359.81179688 -546.21484375 359.71484375 C-543.50951741 358.84169609 -542.45218246 357.66166227 -540.5625 355.5625 C-537.83019598 352.68392703 -535.75288484 351.35520842 -532 350 C-530.19651922 347.98682781 -530.19651922 347.98682781 -529 346 C-527.68 346.33 -526.36 346.66 -525 347 C-525 346.34 -525 345.68 -525 345 C-522.16769504 341.77431936 -520.25674062 339.76013225 -516 339 C-515.67 338.34 -515.34 337.68 -515 337 C-514.34 337 -513.68 337 -513 337 C-513 336.34 -513 335.68 -513 335 C-512.41089844 334.90589844 -511.82179688 334.81179688 -511.21484375 334.71484375 C-508.50951741 333.84169609 -507.45218246 332.66166227 -505.5625 330.5625 C-502.84439272 327.70470412 -500.78069901 326.260233 -497 325 C-496.2265625 324.195625 -496.2265625 324.195625 -495.4375 323.375 C-494 322 -494 322 -490 322 C-489.814375 321.4225 -489.62875 320.845 -489.4375 320.25 C-487.88667917 317.82262826 -486.9116139 317.22359487 -484.4375 315.875 C-480.96468026 314.40524759 -480.96468026 314.40524759 -480 312 C-479.34 312 -478.68 312 -478 312 C-478 311.34 -478 310.68 -478 310 C-477.13181641 309.85691406 -477.13181641 309.85691406 -476.24609375 309.7109375 C-473.51381657 308.84611238 -472.14476462 307.57944243 -470.0625 305.625 C-467.18404278 303.00383504 -464.41059003 300.90591796 -461 299 C-460.34 298.34 -459.68 297.68 -459 297 C-457.68 297 -456.36 297 -455 297 C-454.814375 296.4225 -454.62875 295.845 -454.4375 295.25 C-452.88667917 292.82262826 -451.9116139 292.22359487 -449.4375 290.875 C-445.96468026 289.40524759 -445.96468026 289.40524759 -445 287 C-444.34 287 -443.68 287 -443 287 C-443 286.34 -443 285.68 -443 285 C-442.11634766 284.85884766 -442.11634766 284.85884766 -441.21484375 284.71484375 C-438.50951741 283.84169609 -437.45218246 282.66166227 -435.5625 280.5625 C-432.84439272 277.70470412 -430.78069901 276.260233 -427 275 C-426.2265625 274.195625 -426.2265625 274.195625 -425.4375 273.375 C-424 272 -424 272 -420 272 C-419.814375 271.4225 -419.62875 270.845 -419.4375 270.25 C-417.88667917 267.82262826 -416.9116139 267.22359487 -414.4375 265.875 C-410.96468026 264.40524759 -410.96468026 264.40524759 -410 262 C-409.34 262 -408.68 262 -408 262 C-408 261.34 -408 260.68 -408 260 C-407.13181641 259.85691406 -407.13181641 259.85691406 -406.24609375 259.7109375 C-403.51381657 258.84611238 -402.14476462 257.57944243 -400.0625 255.625 C-397.18404278 253.00383504 -394.41059003 250.90591796 -391 249 C-390.34 248.34 -389.68 247.68 -389 247 C-387.68 247 -386.36 247 -385 247 C-384.731875 246.401875 -384.46375 245.80375 -384.1875 245.1875 C-382.9790109 242.96133587 -381.96469639 241.58687016 -380 240 C-378.67139075 239.64830932 -377.33841672 239.31229724 -376 239 C-375.67 238.34 -375.34 237.68 -375 237 C-374.34 237 -373.68 237 -373 237 C-373 236.34 -373 235.68 -373 235 C-372.13181641 234.85691406 -372.13181641 234.85691406 -371.24609375 234.7109375 C-368.51381657 233.84611238 -367.14476462 232.57944243 -365.0625 230.625 C-362.18404278 228.00383504 -359.41059003 225.90591796 -356 224 C-355.34 223.34 -354.68 222.68 -354 222 C-352.68 222 -351.36 222 -350 222 C-349.814375 221.4225 -349.62875 220.845 -349.4375 220.25 C-347.88667917 217.82262826 -346.9116139 217.22359487 -344.4375 215.875 C-340.96468026 214.40524759 -340.96468026 214.40524759 -340 212 C-339.34 212 -338.68 212 -338 212 C-338 211.34 -338 210.68 -338 210 C-337.13181641 209.85691406 -337.13181641 209.85691406 -336.24609375 209.7109375 C-333.51381657 208.84611238 -332.14476462 207.57944243 -330.0625 205.625 C-327.18404278 203.00383504 -324.41059003 200.90591796 -321 199 C-320.34 198.34 -319.68 197.68 -319 197 C-317.68 197 -316.36 197 -315 197 C-314.814375 196.4225 -314.62875 195.845 -314.4375 195.25 C-312.88667917 192.82262826 -311.9116139 192.22359487 -309.4375 190.875 C-305.96468026 189.40524759 -305.96468026 189.40524759 -305 187 C-304.34 187 -303.68 187 -303 187 C-303 186.34 -303 185.68 -303 185 C-302.13181641 184.85691406 -302.13181641 184.85691406 -301.24609375 184.7109375 C-298.51381657 183.84611238 -297.14476462 182.57944243 -295.0625 180.625 C-292.18404278 178.00383504 -289.41059003 175.90591796 -286 174 C-285.34 173.34 -284.68 172.68 -284 172 C-282.68 172 -281.36 172 -280 172 C-279.814375 171.4225 -279.62875 170.845 -279.4375 170.25 C-277.88667917 167.82262826 -276.9116139 167.22359487 -274.4375 165.875 C-270.96468026 164.40524759 -270.96468026 164.40524759 -270 162 C-269.34 162 -268.68 162 -268 162 C-268 161.34 -268 160.68 -268 160 C-267.13181641 159.85691406 -267.13181641 159.85691406 -266.24609375 159.7109375 C-263.51381657 158.84611238 -262.14476462 157.57944243 -260.0625 155.625 C-257.18404278 153.00383504 -254.41059003 150.90591796 -251 149 C-250.34 148.34 -249.68 147.68 -249 147 C-247.68 147 -246.36 147 -245 147 C-244.814375 146.4225 -244.62875 145.845 -244.4375 145.25 C-242.88667917 142.82262826 -241.9116139 142.22359487 -239.4375 140.875 C-235.96468026 139.40524759 -235.96468026 139.40524759 -235 137 C-234.34 137 -233.68 137 -233 137 C-233 136.34 -233 135.68 -233 135 C-232.13181641 134.85691406 -232.13181641 134.85691406 -231.24609375 134.7109375 C-228.51381657 133.84611238 -227.14476462 132.57944243 -225.0625 130.625 C-222.18404278 128.00383504 -219.41059003 125.90591796 -216 124 C-215.34 123.34 -214.68 122.68 -214 122 C-212.68 122 -211.36 122 -210 122 C-209.814375 121.4225 -209.62875 120.845 -209.4375 120.25 C-207.88667917 117.82262826 -206.9116139 117.22359487 -204.4375 115.875 C-200.96468026 114.40524759 -200.96468026 114.40524759 -200 112 C-199.34 112 -198.68 112 -198 112 C-198 111.34 -198 110.68 -198 110 C-197.42121094 109.90460938 -196.84242188 109.80921875 -196.24609375 109.7109375 C-193.51381657 108.84611238 -192.14476462 107.57944243 -190.0625 105.625 C-187.18404278 103.00383504 -184.41059003 100.90591796 -181 99 C-180.34 98.34 -179.68 97.68 -179 97 C-177.68 97 -176.36 97 -175 97 C-174.814375 96.4225 -174.62875 95.845 -174.4375 95.25 C-172.88667917 92.82262826 -171.9116139 92.22359487 -169.4375 90.875 C-165.96468026 89.40524759 -165.96468026 89.40524759 -165 87 C-164.34 87 -163.68 87 -163 87 C-163 86.34 -163 85.68 -163 85 C-162.42121094 84.90460938 -161.84242188 84.80921875 -161.24609375 84.7109375 C-158.51381657 83.84611238 -157.14476462 82.57944243 -155.0625 80.625 C-152.18404278 78.00383504 -149.41059003 75.90591796 -146 74 C-145.34 73.34 -144.68 72.68 -144 72 C-142.68 72 -141.36 72 -140 72 C-139.814375 71.4225 -139.62875 70.845 -139.4375 70.25 C-137.88667917 67.82262826 -136.9116139 67.22359487 -134.4375 65.875 C-130.96468026 64.40524759 -130.96468026 64.40524759 -130 62 C-129.34 62 -128.68 62 -128 62 C-128 61.34 -128 60.68 -128 60 C-127.42121094 59.90460938 -126.84242188 59.80921875 -126.24609375 59.7109375 C-123.51381657 58.84611238 -122.14476462 57.57944243 -120.0625 55.625 C-117.18404278 53.00383504 -114.41059003 50.90591796 -111 49 C-110.34 48.34 -109.68 47.68 -109 47 C-107.68 47 -106.36 47 -105 47 C-104.64035156 46.10474609 -104.64035156 46.10474609 -104.2734375 45.19140625 C-102.73626249 42.54614496 -101.20900696 41.54713889 -98.625 39.9375 C-94.32950925 37.22947322 -90.39783945 34.40086936 -86.625 31 C-83.62181084 28.38993216 -80.59883136 26.71762406 -77 25 C-76.46375 24.443125 -75.9275 23.88625 -75.375 23.3125 C-74 22 -74 22 -70 22 C-69.64035156 21.10474609 -69.64035156 21.10474609 -69.2734375 20.19140625 C-67.73626249 17.54614496 -66.20900696 16.54713889 -63.625 14.9375 C-60.64884754 13.06122997 -57.79081414 11.14334526 -55 9 C-50.41662915 5.52072051 -45.82298574 2.14054885 -41 -1 C-39.515 -1.99 -39.515 -1.99 -38 -3 C-24.46101309 -7.98564045 -12.44792569 -6.83834544 0 0 Z M11 13 C12 15 12 15 12 15 Z M0 866 C1 868 1 868 1 868 Z " fill="#3E87FE" transform="translate(620,85)"/>
<path d="M0 0 C0.928125 0.474375 1.85625 0.94875 2.8125 1.4375 C5.46378558 3.33127541 6.39325344 5.17212606 8 8 C9.46200723 9.69285048 10.96303847 11.33592088 12.5 12.9609375 C16.76781127 18.76249345 17.435484 24.02524395 17.36076355 31.00401306 C17.36332682 31.88795779 17.3658901 32.77190252 17.36853105 33.68263346 C17.37345612 36.63227894 17.35699705 39.58140785 17.34057617 42.53100586 C17.33972962 44.65023791 17.34020558 46.76947085 17.34190369 48.88870239 C17.34276398 54.63404968 17.32513251 60.37920884 17.30418181 66.12451243 C17.28542082 72.13162833 17.28366502 78.13874861 17.28010559 84.14588928 C17.27078345 95.51776483 17.2461673 106.88955379 17.21605712 118.26139122 C17.18251845 131.20929986 17.16602843 144.15721265 17.15097082 157.10515392 C17.11961796 183.73681727 17.06685409 210.36840378 17 237 C19.83275953 237.33896268 22.66604661 237.67129694 25.5 238 C26.29148437 238.09539062 27.08296875 238.19078125 27.8984375 238.2890625 C32.97418943 238.87152584 37.89280115 239.04479999 43 239 C45.5 239.5 45.5 239.5 47 240 C47 240.66 47 241.32 47 242 C51.95 242 56.9 242 62 242 C62 242.66 62 243.32 62 244 C66.95 244.33 71.9 244.66 77 245 C77 245.66 77 246.32 77 247 C77.886875 246.938125 78.77375 246.87625 79.6875 246.8125 C84.34576309 246.82176096 88.64779805 247.98046037 93.15234375 249.08203125 C97.52263299 250.12468909 101.91182248 251.03408189 106.3125 251.9375 C113.82158069 253.4921673 121.25438208 255.25446602 128.6796875 257.16796875 C131.44532378 257.86100466 134.19892433 258.47280135 137 259 C137 259.66 137 260.32 137 261 C137.6290625 261.03738281 138.258125 261.07476562 138.90625 261.11328125 C140.19015625 261.21189453 140.19015625 261.21189453 141.5 261.3125 C142.3353125 261.37050781 143.170625 261.42851562 144.03125 261.48828125 C147.02979794 262.00513622 149.66298958 262.92435618 152.48828125 264.03491211 C157.53371317 265.9735389 162.6640126 267.68361066 167.77392578 269.44384766 C169.76014952 270.12849854 171.74532824 270.81612179 173.73046875 271.50390625 C175.00254211 271.94288819 176.27467541 272.38169649 177.546875 272.8203125 C178.68995117 273.21492676 179.83302734 273.60954102 181.01074219 274.01611328 C183.3379681 274.78209829 185.62034203 275.43447425 188 276 C195.09656818 278.414647 202.05439367 281.18658984 209 284 C209.8353125 284.33 210.670625 284.66 211.53125 285 C215.58613821 286.60193115 219.59618195 288.2514902 223.5625 290.0625 C227.94103064 292.04065759 232.41677099 293.56977251 237 295 C237 295.66 237 296.32 237 297 C237.66257812 297.08507812 238.32515625 297.17015625 239.0078125 297.2578125 C242.95769754 298.237549 246.28010778 300.0002805 249.875 301.875 C253.76307585 303.88151174 257.61927761 305.83718303 261.64453125 307.55859375 C265.82301861 309.3535435 269.69285307 311.55277601 273.64453125 313.79296875 C275.85553094 315.15201565 275.85553094 315.15201565 278 315 C278 315.66 278 316.32 278 317 C278.9075 317.268125 279.815 317.53625 280.75 317.8125 C283.80235404 318.92778321 285.4572437 320.07366947 288 322 C290.32671865 323.01529541 292.6603447 324.01488198 295 325 C296.67937304 325.9785111 298.34545246 326.98007343 300 328 C306.18794506 331.76978906 312.42189498 335.3505539 318.84765625 338.703125 C321 340 321 340 322 342 C322.804375 342.391875 323.60875 342.78375 324.4375 343.1875 C328.45079448 345.22935158 331.94866122 347.68834243 335.609375 350.296875 C339.33601276 352.95179994 343.15680382 355.4554358 347 357.9375 C350 360 350 360 353.0625 362.5625 C355.64917894 364.70889316 358.12546287 366.288966 361 368 C363.70159612 369.95446132 366.3497411 371.97674072 369 374 C370.99149806 375.50044374 372.98837088 376.99148257 375 378.46484375 C378.61114267 381.12382966 381.82681519 383.82681519 385 387 C385.75152344 387.42023438 386.50304687 387.84046875 387.27734375 388.2734375 C390.48137111 390.30525973 392.76812262 392.68496615 395.375 395.4375 C399.27163528 399.47129896 402.89486464 402.6176035 408 405 C408 405.66 408 406.32 408 407 C408.5878125 407.27070313 409.175625 407.54140625 409.78125 407.8203125 C415.22694304 410.7157338 422.04077838 416.12233515 424 422 C424.99 422 425.98 422 427 422 C428.04443685 423.63918561 429.03669648 425.3118578 430 427 C431.45200377 428.60719983 432.95432804 430.17016535 434.5 431.6875 C435.2734375 432.45449219 436.046875 433.22148438 436.84375 434.01171875 C439.07302147 436.0673332 441.28534327 437.64267164 444 439 C444 439.99 444 440.98 444 442 C444.99 442.33 445.98 442.66 447 443 C448.34399414 444.37841797 448.34399414 444.37841797 449.72265625 446.1171875 C451.91496543 448.7739977 454.17710382 451.20703188 456.68359375 453.5703125 C457.30041016 454.15683594 457.91722656 454.74335937 458.55273438 455.34765625 C459.82765309 456.5499112 461.11183053 457.74241088 462.40429688 458.92578125 C464.10098982 460.55590193 465.64668941 462.07469558 467 464 C466.91015625 466.9296875 466.91015625 466.9296875 466 469 C465.34 467.68 464.68 466.36 464 465 C463.01 465 462.02 465 461 465 C458.83622825 463.11136383 456.84010719 461.21149502 454.8359375 459.1640625 C454.2432608 458.56951263 453.65058411 457.97496277 453.03994751 457.36239624 C451.78743723 456.10315924 450.53853219 454.84032757 449.29296875 453.57421875 C447.38270043 451.6328259 445.46199588 449.70227851 443.5390625 447.7734375 C442.32489554 446.55009946 441.11133317 445.32616099 439.8984375 444.1015625 C439.32241791 443.52129303 438.74639832 442.94102356 438.15292358 442.34317017 C434.11719973 438.23439946 434.11719973 438.23439946 433 436 C430.98330173 434.86649466 430.98330173 434.86649466 429 434 C428.67 434.33 428.34 434.66 428 435 C425.72042178 435.09862411 423.43770548 435.12447068 421.15599483 435.1241985 C420.06243795 435.12611563 420.06243795 435.12611563 418.94678901 435.12807148 C416.46782062 435.13116994 413.98891419 435.12704967 411.50994778 435.12304783 C409.72149354 435.12378653 407.93303945 435.12496411 406.14458576 435.12654433 C401.1835315 435.12963462 396.22249749 435.12642074 391.26144473 435.12226619 C385.88184628 435.11884997 380.50225001 435.12119934 375.12265116 435.12284368 C365.67888603 435.12492372 356.23512717 435.12326295 346.79136276 435.11920547 C332.74866587 435.11318877 318.70597296 435.11286796 304.66327502 435.11374746 C281.04516305 435.1150637 257.42705394 435.11171835 233.80894279 435.10573006 C210.41208826 435.09981201 187.01523487 435.09595585 163.61837959 435.09487724 C162.89235238 435.09484283 162.16632517 435.09480842 161.41829714 435.09477296 C154.78737083 435.09445977 148.15644453 435.09417208 141.52551822 435.09391499 C125.04016003 435.09327551 108.55480186 435.09231614 92.0694437 435.09113979 C90.94325659 435.09105982 90.94325659 435.09105982 89.79431821 435.09097823 C53.25309647 435.08835532 16.71187549 435.08204719 -19.8293457 435.07543945 C-32.51344807 435.07314784 -45.19755045 435.0708725 -57.88165283 435.06866455 C-58.66829861 435.0685276 -59.4549444 435.06839065 -60.26542793 435.06824955 C-96.81959682 435.06190805 -133.37376584 435.05818071 -169.92793513 435.05512976 C-172.30041883 435.05493169 -174.67290252 435.0547325 -177.04538621 435.05453308 C-192.7676697 435.05321332 -208.4899532 435.05193867 -224.21223671 435.05069422 C-255.49694409 435.04821757 -286.78165144 435.04547588 -318.06635878 435.04255217 C-319.55629203 435.04241293 -321.04622528 435.04227388 -322.53615853 435.04213501 C-405.21184388 435.03442736 -487.88752842 435.02189263 -620 435 C-620 430.71 -620 426.42 -620 422 C-619.34 422 -618.68 422 -618 422 C-618.061875 421.0925 -618.12375 420.185 -618.1875 419.25 C-617.97723851 415.60546754 -617.32545678 414.68321936 -615 412 C-614.690625 411.34 -614.38125 410.68 -614.0625 410 C-612.73570264 407.50249908 -611.1209809 405.85585829 -609 404 C-608.34 404 -607.68 404 -607 404 C-607 403.34 -607 402.68 -607 402 C-605.8553125 401.5978125 -605.8553125 401.5978125 -604.6875 401.1875 C-601.99574277 400.2011342 -601.99574277 400.2011342 -600.4375 398.375 C-599 397 -599 397 -595 397 C-594.814375 396.4225 -594.62875 395.845 -594.4375 395.25 C-592.88667917 392.82262826 -591.9116139 392.22359487 -589.4375 390.875 C-585.96468026 389.40524759 -585.96468026 389.40524759 -585 387 C-584.34 387 -583.68 387 -583 387 C-583 386.34 -583 385.68 -583 385 C-582.13181641 384.85691406 -582.13181641 384.85691406 -581.24609375 384.7109375 C-578.51381657 383.84611238 -577.14476462 382.57944243 -575.0625 380.625 C-572.18404278 378.00383504 -569.41059003 375.90591796 -566 374 C-565.34 373.34 -564.68 372.68 -564 372 C-562.68 372 -561.36 372 -560 372 C-559.7215625 371.13375 -559.7215625 371.13375 -559.4375 370.25 C-557.88667917 367.82262826 -556.9116139 367.22359487 -554.4375 365.875 C-550.96468026 364.40524759 -550.96468026 364.40524759 -550 362 C-549.34 362 -548.68 362 -548 362 C-548 361.34 -548 360.68 -548 360 C-547.41089844 359.90589844 -546.82179688 359.81179688 -546.21484375 359.71484375 C-543.50951741 358.84169609 -542.45218246 357.66166227 -540.5625 355.5625 C-537.83019598 352.68392703 -535.75288484 351.35520842 -532 350 C-530.19651922 347.98682781 -530.19651922 347.98682781 -529 346 C-527.68 346.33 -526.36 346.66 -525 347 C-525 346.34 -525 345.68 -525 345 C-522.16769504 341.77431936 -520.25674062 339.76013225 -516 339 C-515.67 338.34 -515.34 337.68 -515 337 C-514.34 337 -513.68 337 -513 337 C-513 336.34 -513 335.68 -513 335 C-512.41089844 334.90589844 -511.82179688 334.81179688 -511.21484375 334.71484375 C-508.50951741 333.84169609 -507.45218246 332.66166227 -505.5625 330.5625 C-502.84439272 327.70470412 -500.78069901 326.260233 -497 325 C-496.2265625 324.195625 -496.2265625 324.195625 -495.4375 323.375 C-494 322 -494 322 -490 322 C-489.814375 321.4225 -489.62875 320.845 -489.4375 320.25 C-487.88667917 317.82262826 -486.9116139 317.22359487 -484.4375 315.875 C-480.96468026 314.40524759 -480.96468026 314.40524759 -480 312 C-479.34 312 -478.68 312 -478 312 C-478 311.34 -478 310.68 -478 310 C-477.13181641 309.85691406 -477.13181641 309.85691406 -476.24609375 309.7109375 C-473.51381657 308.84611238 -472.14476462 307.57944243 -470.0625 305.625 C-467.18404278 303.00383504 -464.41059003 300.90591796 -461 299 C-460.34 298.34 -459.68 297.68 -459 297 C-457.68 297 -456.36 297 -455 297 C-454.814375 296.4225 -454.62875 295.845 -454.4375 295.25 C-452.88667917 292.82262826 -451.9116139 292.22359487 -449.4375 290.875 C-445.96468026 289.40524759 -445.96468026 289.40524759 -445 287 C-444.34 287 -443.68 287 -443 287 C-443 286.34 -443 285.68 -443 285 C-442.11634766 284.85884766 -442.11634766 284.85884766 -441.21484375 284.71484375 C-438.50951741 283.84169609 -437.45218246 282.66166227 -435.5625 280.5625 C-432.84439272 277.70470412 -430.78069901 276.260233 -427 275 C-426.2265625 274.195625 -426.2265625 274.195625 -425.4375 273.375 C-424 272 -424 272 -420 272 C-419.814375 271.4225 -419.62875 270.845 -419.4375 270.25 C-417.88667917 267.82262826 -416.9116139 267.22359487 -414.4375 265.875 C-410.96468026 264.40524759 -410.96468026 264.40524759 -410 262 C-409.34 262 -408.68 262 -408 262 C-408 261.34 -408 260.68 -408 260 C-407.13181641 259.85691406 -407.13181641 259.85691406 -406.24609375 259.7109375 C-403.51381657 258.84611238 -402.14476462 257.57944243 -400.0625 255.625 C-397.18404278 253.00383504 -394.41059003 250.90591796 -391 249 C-390.34 248.34 -389.68 247.68 -389 247 C-387.68 247 -386.36 247 -385 247 C-384.731875 246.401875 -384.46375 245.80375 -384.1875 245.1875 C-382.9790109 242.96133587 -381.96469639 241.58687016 -380 240 C-378.67139075 239.64830932 -377.33841672 239.31229724 -376 239 C-375.67 238.34 -375.34 237.68 -375 237 C-374.34 237 -373.68 237 -373 237 C-373 236.34 -373 235.68 -373 235 C-372.13181641 234.85691406 -372.13181641 234.85691406 -371.24609375 234.7109375 C-368.51381657 233.84611238 -367.14476462 232.57944243 -365.0625 230.625 C-362.18404278 228.00383504 -359.41059003 225.90591796 -356 224 C-355.34 223.34 -354.68 222.68 -354 222 C-352.68 222 -351.36 222 -350 222 C-349.814375 221.4225 -349.62875 220.845 -349.4375 220.25 C-347.88667917 217.82262826 -346.9116139 217.22359487 -344.4375 215.875 C-340.96468026 214.40524759 -340.96468026 214.40524759 -340 212 C-339.34 212 -338.68 212 -338 212 C-338 211.34 -338 210.68 -338 210 C-337.13181641 209.85691406 -337.13181641 209.85691406 -336.24609375 209.7109375 C-333.51381657 208.84611238 -332.14476462 207.57944243 -330.0625 205.625 C-327.18404278 203.00383504 -324.41059003 200.90591796 -321 199 C-320.34 198.34 -319.68 197.68 -319 197 C-317.68 197 -316.36 197 -315 197 C-314.814375 196.4225 -314.62875 195.845 -314.4375 195.25 C-312.88667917 192.82262826 -311.9116139 192.22359487 -309.4375 190.875 C-305.96468026 189.40524759 -305.96468026 189.40524759 -305 187 C-304.34 187 -303.68 187 -303 187 C-303 186.34 -303 185.68 -303 185 C-302.13181641 184.85691406 -302.13181641 184.85691406 -301.24609375 184.7109375 C-298.51381657 183.84611238 -297.14476462 182.57944243 -295.0625 180.625 C-292.18404278 178.00383504 -289.41059003 175.90591796 -286 174 C-285.34 173.34 -284.68 172.68 -284 172 C-282.68 172 -281.36 172 -280 172 C-279.814375 171.4225 -279.62875 170.845 -279.4375 170.25 C-277.88667917 167.82262826 -276.9116139 167.22359487 -274.4375 165.875 C-270.96468026 164.40524759 -270.96468026 164.40524759 -270 162 C-269.34 162 -268.68 162 -268 162 C-268 161.34 -268 160.68 -268 160 C-267.13181641 159.85691406 -267.13181641 159.85691406 -266.24609375 159.7109375 C-263.51381657 158.84611238 -262.14476462 157.57944243 -260.0625 155.625 C-257.18404278 153.00383504 -254.41059003 150.90591796 -251 149 C-250.34 148.34 -249.68 147.68 -249 147 C-247.68 147 -246.36 147 -245 147 C-244.814375 146.4225 -244.62875 145.845 -244.4375 145.25 C-242.88667917 142.82262826 -241.9116139 142.22359487 -239.4375 140.875 C-235.96468026 139.40524759 -235.96468026 139.40524759 -235 137 C-234.34 137 -233.68 137 -233 137 C-233 136.34 -233 135.68 -233 135 C-232.13181641 134.85691406 -232.13181641 134.85691406 -231.24609375 134.7109375 C-228.51381657 133.84611238 -227.14476462 132.57944243 -225.0625 130.625 C-222.18404278 128.00383504 -219.41059003 125.90591796 -216 124 C-215.34 123.34 -214.68 122.68 -214 122 C-212.68 122 -211.36 122 -210 122 C-209.814375 121.4225 -209.62875 120.845 -209.4375 120.25 C-207.88667917 117.82262826 -206.9116139 117.22359487 -204.4375 115.875 C-200.96468026 114.40524759 -200.96468026 114.40524759 -200 112 C-199.34 112 -198.68 112 -198 112 C-198 111.34 -198 110.68 -198 110 C-197.42121094 109.90460938 -196.84242188 109.80921875 -196.24609375 109.7109375 C-193.51381657 108.84611238 -192.14476462 107.57944243 -190.0625 105.625 C-187.18404278 103.00383504 -184.41059003 100.90591796 -181 99 C-180.34 98.34 -179.68 97.68 -179 97 C-177.68 97 -176.36 97 -175 97 C-174.814375 96.4225 -174.62875 95.845 -174.4375 95.25 C-172.88667917 92.82262826 -171.9116139 92.22359487 -169.4375 90.875 C-165.96468026 89.40524759 -165.96468026 89.40524759 -165 87 C-164.34 87 -163.68 87 -163 87 C-163 86.34 -163 85.68 -163 85 C-162.42121094 84.90460938 -161.84242188 84.80921875 -161.24609375 84.7109375 C-158.51381657 83.84611238 -157.14476462 82.57944243 -155.0625 80.625 C-152.18404278 78.00383504 -149.41059003 75.90591796 -146 74 C-145.34 73.34 -144.68 72.68 -144 72 C-142.68 72 -141.36 72 -140 72 C-139.814375 71.4225 -139.62875 70.845 -139.4375 70.25 C-137.88667917 67.82262826 -136.9116139 67.22359487 -134.4375 65.875 C-130.96468026 64.40524759 -130.96468026 64.40524759 -130 62 C-129.34 62 -128.68 62 -128 62 C-128 61.34 -128 60.68 -128 60 C-127.42121094 59.90460938 -126.84242188 59.80921875 -126.24609375 59.7109375 C-123.51381657 58.84611238 -122.14476462 57.57944243 -120.0625 55.625 C-117.18404278 53.00383504 -114.41059003 50.90591796 -111 49 C-110.34 48.34 -109.68 47.68 -109 47 C-107.68 47 -106.36 47 -105 47 C-104.64035156 46.10474609 -104.64035156 46.10474609 -104.2734375 45.19140625 C-102.73626249 42.54614496 -101.20900696 41.54713889 -98.625 39.9375 C-94.32950925 37.22947322 -90.39783945 34.40086936 -86.625 31 C-83.62181084 28.38993216 -80.59883136 26.71762406 -77 25 C-76.46375 24.443125 -75.9275 23.88625 -75.375 23.3125 C-74 22 -74 22 -70 22 C-69.64035156 21.10474609 -69.64035156 21.10474609 -69.2734375 20.19140625 C-67.73626249 17.54614496 -66.20900696 16.54713889 -63.625 14.9375 C-60.64884754 13.06122997 -57.79081414 11.14334526 -55 9 C-50.41662915 5.52072051 -45.82298574 2.14054885 -41 -1 C-39.515 -1.99 -39.515 -1.99 -38 -3 C-24.46101309 -7.98564045 -12.44792569 -6.83834544 0 0 Z M11 13 C12 15 12 15 12 15 Z " fill="#21AFFC" transform="translate(620,85)"/>
<path d="M0 0 C5.80562412 2.67364269 10.7529934 7.26295418 15 12 C15.33 12.99 15.66 13.98 16 15 C16.99 15 17.98 15 19 15 C20.04443685 16.63918561 21.03669648 18.3118578 22 20 C23.45200377 21.60719983 24.95432804 23.17016535 26.5 24.6875 C27.2734375 25.45449219 28.046875 26.22148438 28.84375 27.01171875 C31.07302147 29.0673332 33.28534327 30.64267164 36 32 C36 32.99 36 33.98 36 35 C36.99 35.33 37.98 35.66 39 36 C40.34399414 37.37841797 40.34399414 37.37841797 41.72265625 39.1171875 C43.91496543 41.7739977 46.17710382 44.20703188 48.68359375 46.5703125 C49.30041016 47.15683594 49.91722656 47.74335937 50.55273438 48.34765625 C51.82765309 49.5499112 53.11183053 50.74241088 54.40429688 51.92578125 C56.10098982 53.55590193 57.64668941 55.07469558 59 57 C58.91015625 59.9296875 58.91015625 59.9296875 58 62 C57.34 60.68 56.68 59.36 56 58 C55.01 58 54.02 58 53 58 C50.84747234 56.13499136 48.86379035 54.25933449 46.87109375 52.234375 C45.98563622 51.34966522 45.98563622 51.34966522 45.08229065 50.44708252 C43.83388822 49.1963376 42.58918277 47.94189344 41.34790039 46.68408203 C39.45025249 44.76291057 37.53971685 42.8553281 35.62695312 40.94921875 C34.4158734 39.73255995 33.20556126 38.5151365 31.99609375 37.296875 C31.13980629 36.44195465 31.13980629 36.44195465 30.26622009 35.56976318 C27.62827992 32.88444475 25.43873811 30.5015795 24 27 C18.38500976 19.50150038 11.17580108 13.08423084 4.52978516 6.51367188 C2.67944965 4.68282602 0.83833129 2.84289291 -1 1 C-0.67 0.67 -0.34 0.34 0 0 Z " fill="#219BE8" transform="translate(1028,492)"/>
<path d="M0 0 C4.68747148 1.97915462 6.6533457 3.52002362 9 8 C10.31037934 9.68477344 11.63823078 11.35648543 13 13 C9.36938333 11.46781315 7.0136227 9.2816856 4.25 6.5 C3.45078125 5.7059375 2.6515625 4.911875 1.828125 4.09375 C0 2 0 2 0 0 Z " fill="#22B0FD" transform="translate(619,85)"/>
<path d="M0 0 C8.25 0 16.5 0 25 0 C25 0.33 25 0.66 25 1 C16.75 1 8.5 1 0 1 C0 0.67 0 0.34 0 0 Z " fill="#000002" transform="translate(639,720)"/>
<path d="M0 0 C5.61 0 11.22 0 17 0 C17 0.33 17 0.66 17 1 C11.39 1 5.78 1 0 1 C0 0.67 0 0.34 0 0 Z " fill="#000002" transform="translate(1234,1200)"/>
<path d="M0 0 C0.33 0 0.66 0 1 0 C1 3.3 1 6.6 1 10 C0.67 10 0.34 10 0 10 C0 6.7 0 3.4 0 0 Z " fill="#000002" transform="translate(1275,1031)"/>
<path d="M0 0 C0.33 0 0.66 0 1 0 C1 3.3 1 6.6 1 10 C0.67 10 0.34 10 0 10 C0 6.7 0 3.4 0 0 Z " fill="#000002" transform="translate(1270,984)"/>
<path d="M0 0 C2.97 0 5.94 0 9 0 C9 0.33 9 0.66 9 1 C6.03 1 3.06 1 0 1 C0 0.67 0 0.34 0 0 Z " fill="#000002" transform="translate(700,725)"/>
<path d="M0 0 C0.33 0 0.66 0 1 0 C1 2.64 1 5.28 1 8 C0.67 8 0.34 8 0 8 C0 5.36 0 2.72 0 0 Z " fill="#000002" transform="translate(1265,951)"/>
<path d="M0 0 C0.33 0 0.66 0 1 0 C1 1.98 1 3.96 1 6 C0.67 6 0.34 6 0 6 C0 4.02 0 2.04 0 0 Z " fill="#000002" transform="translate(1260,923)"/>
<path d="M0 0 C1.98 0 3.96 0 6 0 C6 0.33 6 0.66 6 1 C4.02 1 2.04 1 0 1 C0 0.67 0 0.34 0 0 Z " fill="#000002" transform="translate(735,730)"/>
<path d="M0 0 C0.33 0 0.66 0 1 0 C1 1.65 1 3.3 1 5 C0.67 5 0.34 5 0 5 C0 3.35 0 1.7 0 0 Z " fill="#000002" transform="translate(1255,899)"/>
<path d="M0 0 C1.65 0 3.3 0 5 0 C5 0.33 5 0.66 5 1 C3.35 1 1.7 1 0 1 C0 0.67 0 0.34 0 0 Z " fill="#000002" transform="translate(761,735)"/>
<path d="M0 0 C1 4 1 4 1 4 Z " fill="#000002" transform="translate(1250,877)"/>
<path d="M0 0 C1 4 1 4 1 4 Z " fill="#000002" transform="translate(1245,857)"/>
<path d="M0 0 C4 1 4 1 4 1 Z " fill="#000002" transform="translate(802,745)"/>
<path d="M0 0 C3 1 3 1 3 1 Z " fill="#000002" transform="translate(783,740)"/>
<path d="" fill="#000002" transform="translate(0,0)"/>
<path d="" fill="#000002" transform="translate(0,0)"/>
<path d="M0 0 C2 1 2 1 2 1 Z " fill="#000002" transform="translate(945,805)"/>
<path d="M0 0 C2 1 2 1 2 1 Z " fill="#000002" transform="translate(927,795)"/>
<path d="" fill="#000002" transform="translate(0,0)"/>
<path d="M0 0 C2 1 2 1 2 1 Z " fill="#000002" transform="translate(897,780)"/>
<path d="M0 0 C2 1 2 1 2 1 Z " fill="#000002" transform="translate(849,760)"/>
<path d="" fill="#000002" transform="translate(0,0)"/>
<path d="M0 0 C2 1 2 1 2 1 Z " fill="#000002" transform="translate(819,750)"/>
<path d="" fill="#000002" transform="translate(0,0)"/>
<path d="" fill="#000002" transform="translate(0,0)"/>
<path d="" fill="#0B4776" transform="translate(0,0)"/>
<path d="" fill="#0B4776" transform="translate(0,0)"/>
<path d="" fill="#000002" transform="translate(0,0)"/>
<path d="" fill="#000002" transform="translate(0,0)"/>
<path d="" fill="#22B0FD" transform="translate(0,0)"/>
<path d="" fill="#22B0FD" transform="translate(0,0)"/>
<path d="" fill="#3F87FF" transform="translate(0,0)"/>
<path d="" fill="#0B4776" transform="translate(0,0)"/>
<path d="" fill="#000002" transform="translate(0,0)"/>
<path d="" fill="#000002" transform="translate(0,0)"/>
<path d="" fill="#000002" transform="translate(0,0)"/>
<path d="" fill="#000002" transform="translate(0,0)"/>
<path d="" fill="#000002" transform="translate(0,0)"/>
<path d="" fill="#000002" transform="translate(0,0)"/>
<path d="" fill="#000002" transform="translate(0,0)"/>
<path d="" fill="#000002" transform="translate(0,0)"/>
<path d="" fill="#22B0FD" transform="translate(0,0)"/>
<path d="" fill="#000002" transform="translate(0,0)"/>
<path d="" fill="#000002" transform="translate(0,0)"/>
<path d="" fill="#000002" transform="translate(0,0)"/>
<path d="" fill="#000002" transform="translate(0,0)"/>
<path d="" fill="#000002" transform="translate(0,0)"/>
<path d="" fill="#000002" transform="translate(0,0)"/>
<path d="" fill="#000002" transform="translate(0,0)"/>
<path d="" fill="#000002" transform="translate(0,0)"/>
<path d="" fill="#000002" transform="translate(0,0)"/>
<path d="" fill="#000002" transform="translate(0,0)"/>
<path d="" fill="#000002" transform="translate(0,0)"/>
<path d="" fill="#000002" transform="translate(0,0)"/>
<path d="" fill="#000002" transform="translate(0,0)"/>
<path d="" fill="#000002" transform="translate(0,0)"/>
<path d="" fill="#3F87FF" transform="translate(0,0)"/>
<path d="" fill="#000002" transform="translate(0,0)"/>
<path d="" fill="#000002" transform="translate(0,0)"/>
<path d="" fill="#000002" transform="translate(0,0)"/>
<path d="" fill="#000002" transform="translate(0,0)"/>
<path d="" fill="#000002" transform="translate(0,0)"/>
<path d="" fill="#000002" transform="translate(0,0)"/>
<path d="" fill="#0B4776" transform="translate(0,0)"/>
<path d="" fill="#22B0FD" transform="translate(0,0)"/>
<path d="" fill="#22B0FD" transform="translate(0,0)"/>
<path d="" fill="#22B0FD" transform="translate(0,0)"/>
<path d="" fill="#22B0FD" transform="translate(0,0)"/>
<path d="" fill="#22B0FD" transform="translate(0,0)"/>
<path d="" fill="#22B0FD" transform="translate(0,0)"/>
<path d="" fill="#22B0FD" transform="translate(0,0)"/>
<path d="" fill="#22B0FD" transform="translate(0,0)"/>
<path d="" fill="#22B0FD" transform="translate(0,0)"/>
<path d="" fill="#22B0FD" transform="translate(0,0)"/>
<path d="" fill="#000002" transform="translate(0,0)"/>
<path d="" fill="#22B0FD" transform="translate(0,0)"/>
<path d="" fill="#22B0FD" transform="translate(0,0)"/>
<path d="" fill="#22B0FD" transform="translate(0,0)"/>
<path d="" fill="#22B0FD" transform="translate(0,0)"/>
<path d="" fill="#22B0FD" transform="translate(0,0)"/>
<path d="" fill="#22B0FD" transform="translate(0,0)"/>
<path d="" fill="#22B0FD" transform="translate(0,0)"/>
<path d="" fill="#22B0FD" transform="translate(0,0)"/>
<path d="" fill="#000002" transform="translate(0,0)"/>
</svg>
